<?xml version="1.0" encoding="iso-8859-1"?>
<!-- Generator: Adobe Illustrator 19.0.0, SVG Export Plug-In . SVG Version: 6.00 Build 0)  -->
<svg xmlns="http://www.w3.org/2000/svg" xmlns:xlink="http://www.w3.org/1999/xlink" version="1.1" id="Layer_1" x="0px" y="0px" viewBox="0 0 512 512" style="enable-background:new 0 0 512 512;" xml:space="preserve">
<path style="fill:#E4EAF8;" d="M328.294,8.294H87.914c-9.772,0-17.693,7.921-17.693,17.693v460.026  c0,9.772,7.921,17.693,17.693,17.693h336.173c9.772,0,17.693-7.921,17.693-17.693V121.782c0-4.692-1.864-9.193-5.182-12.51  l-95.792-95.795C337.488,10.158,332.987,8.294,328.294,8.294z"/>
<path style="fill:#D5DCED;" d="M335.067,105.607V9.642c-2.127-0.881-4.426-1.348-6.773-1.348h-9.814v97.313  c0,14.329,11.658,25.987,25.987,25.987h97.313v-9.812c0-2.348-0.467-4.648-1.349-6.775h-95.964  C339.283,115.006,335.067,110.79,335.067,105.607z"/>
<path d="M450.073,121.782c0-6.941-2.703-13.467-7.611-18.376L346.67,7.611C341.762,2.704,335.235,0,328.294,0H87.914  C73.584,0,61.927,11.658,61.927,25.987v460.026c0,14.329,11.658,25.987,25.987,25.987h336.173c14.329,0,25.987-11.658,25.987-25.987  V121.782z M424.086,495.413H87.914c-5.183,0-9.4-4.217-9.4-9.4V25.987c0-5.183,4.217-9.4,9.4-9.4h230.566v89.019  c0,14.329,11.658,25.987,25.987,25.987h61.927c4.58,0,8.294-3.713,8.294-8.294c0-4.58-3.713-8.294-8.294-8.294h-61.927  c-5.183,0-9.4-4.217-9.4-9.4v-86.14l95.665,95.669c1.775,1.775,2.752,4.136,2.752,6.646v364.231  C433.486,491.196,429.269,495.413,424.086,495.413z"/>
<g>
</g>
<g>
</g>
<g>
</g>
<g>
</g>
<g>
</g>
<g>
</g>
<g>
</g>
<g>
</g>
<g>
</g>
<g>
</g>
<g>
</g>
<g>
</g>
<g>
</g>
<g>
</g>
<g>
</g>
</svg>
